<svg width="187" height="82" viewBox="0 0 187 82" fill="none" xmlns="http://www.w3.org/2000/svg">
<path d="M64.0817 62.5555L65.0103 62.0174L66.0865 63.8746L65.1579 64.4127L36.5001 81.0215L4.65114 62.5488L3.72119 62.0093L4.79875 60.1521L5.72735 60.6916L36.5001 78.5403L64.0817 62.5555Z" fill="white"/>
<path d="M4.31625 54.1197V55.1933H2.16919V54.1197V21.5569L34.4905 2.96072L35.4204 2.42529L36.4913 4.28652L35.5613 4.82195L4.31625 22.7995V54.1197Z" fill="white"/>
<path d="M40.9833 7.13737L40.0493 6.60866L41.1067 4.73938L42.0407 5.26809L70.8301 21.5522V56.0259V57.0994H68.683V56.0259V22.8055L40.9833 7.13737Z" fill="white"/>
<path d="M35.6745 6.48629C37.4657 6.48629 38.9177 5.03428 38.9177 3.24315C38.9177 1.45201 37.4657 0 35.6745 0C33.8834 0 32.4314 1.45201 32.4314 3.24315C32.4314 5.03428 33.8834 6.48629 35.6745 6.48629Z" fill="white"/>
<path d="M69.7568 63.5656C71.548 63.5656 73 62.1136 73 60.3225C73 58.5314 71.548 57.0793 69.7568 57.0793C67.9657 57.0793 66.5137 58.5314 66.5137 60.3225C66.5137 62.1136 67.9657 63.5656 69.7568 63.5656Z" fill="white"/>
<path d="M3.24314 63.5656C5.03428 63.5656 6.48629 62.1136 6.48629 60.3225C6.48629 58.5314 5.03428 57.0793 3.24314 57.0793C1.452 57.0793 0 58.5314 0 60.3225C0 62.1136 1.452 63.5656 3.24314 63.5656Z" fill="white"/>
<path d="M30.1004 18.4859L13.6212 27.2423V44.1068L30.1004 35.188H34.3774V69.5728H30.1004L9.40505 57.728V52.2551H13.6953V55.7821L30.1004 64.8628V39.5663L13.6953 48.6471H9.40505L9.34668 25.2965L30.1004 13.6211H34.3774V21.4047H30.1004V18.4859Z" fill="white"/>
<path d="M63.2413 57.728L42.546 69.5728H38.269V13.6211H42.546L63.2413 25.466V30.9387H58.9511V27.4118L42.546 18.4859V64.8628L58.9511 55.7821V52.5389H63.2413V57.728Z" fill="white"/>
<path d="M87.725 33.458C88.072 33.7007 88.392 33.9173 88.687 34.108C88.999 34.2813 89.268 34.472 89.493 34.68C89.944 35.096 90.169 35.6073 90.169 36.214V40.634C90.169 41.414 89.892 42.012 89.337 42.428C88.869 42.8093 88.254 43 87.491 43H79.197V38.19H81.069V41.232H88.089V36.162L81.277 31.976C80.67 31.6293 80.168 31.274 79.769 30.91C79.388 30.5287 79.197 30.0173 79.197 29.376V26.1C79.197 25.0773 79.44 24.3753 79.925 23.994C80.341 23.6647 81.06 23.5 82.083 23.5H89.935V28.31H88.063V25.268H81.277V29.428L87.725 33.458ZM100.049 41.232H101.739V43H96.279V41.232H97.917V25.268H96.279V23.5H101.739V25.268H100.049V41.232ZM107.982 25.268V23.5H111.986L117.498 34.862L122.958 23.5H126.962V25.268H125.324V41.232H126.962V43H121.502V41.232H123.192V27.842L118.278 37.956H116.64L111.752 27.764V41.232H113.442V43H107.982V41.232H109.62V25.268H107.982ZM142.103 23.5C143.247 23.5 144.018 23.7167 144.417 24.15C144.816 24.5833 145.015 25.4413 145.015 26.724V28.622C145.015 29.61 144.807 30.3293 144.391 30.78C144.183 31.0053 143.906 31.222 143.559 31.43C143.23 31.638 142.822 31.8893 142.337 32.184L136.591 35.772V41.232H138.281V43H132.821V41.232H134.459V25.294H132.821V23.5H142.103ZM143.117 25.294H136.591V33.692L143.117 29.662V25.294ZM150.729 41.232H152.367V25.268H150.729V23.5H156.189V25.268H154.499V41.232H159.959V38.19H161.727V43H150.729V41.232ZM176.139 30.182V35.642H174.371V33.796H170.705V41.232H177.361V38.19H179.129V43H166.935V41.232H168.573V25.268H166.935V23.5H179.129V28.31H177.361V25.268H170.705V32.028H174.371V30.182H176.139Z" fill="white"/>
<path d="M84.9959 55.41H85.9479V58H81.6499C80.8659 58 80.3899 57.692 80.2219 57.076C80.1659 56.8987 80.1379 56.7073 80.1379 56.502V49.012C80.1379 48.3307 80.3759 47.8733 80.8519 47.64C81.0289 47.5467 81.2489 47.5 81.5099 47.5H85.9479V50.09H84.9959V48.452H81.2859V57.048H84.9959V55.41ZM96.4569 47.5C97.0259 47.5 97.4369 47.6587 97.6889 47.976C97.9499 48.284 98.0809 48.746 98.0809 49.362V56.096C98.0809 56.768 97.9689 57.2533 97.7449 57.552C97.5209 57.8507 97.1149 58 96.5269 58H93.8389C92.9429 58 92.4149 57.664 92.2569 56.992C92.2009 56.7867 92.1729 56.558 92.1729 56.306V49.362C92.1729 48.7367 92.2749 48.284 92.4809 48.004C92.7139 47.668 93.1289 47.5 93.7269 47.5H96.4569ZM93.2929 57.048H96.9609V48.452H93.2929V57.048ZM113.467 48.452H112.585V58H111.213L107.251 49.824V57.048H108.161V58H105.221V57.048H106.103V48.452H105.221V47.5H107.377L111.437 55.844V48.452H110.527V47.5H113.467V48.452ZM122.003 57.048H122.885V48.452H121.121V50.104H120.113V47.5H126.819V50.104H125.797V48.452H124.033V57.048H124.943V58H122.003V57.048ZM136.936 53.38L135.69 48.452L134.444 53.38H136.936ZM139.834 57.048V58H137.104V57.048H137.86L137.16 54.262H134.22L133.52 57.048H134.29V58H131.56V57.048H132.442L134.878 47.5H136.53L138.924 57.048H139.834ZM151.266 55.41H152.218V58H147.92C147.136 58 146.66 57.692 146.492 57.076C146.436 56.8987 146.408 56.7073 146.408 56.502V49.012C146.408 48.3307 146.646 47.8733 147.122 47.64C147.3 47.5467 147.519 47.5 147.78 47.5H152.218V50.09H151.266V48.452H147.556V57.048H151.266V55.41ZM160.554 57.048H161.436V48.452H159.672V50.104H158.664V47.5H165.37V50.104H164.348V48.452H162.584V57.048H163.494V58H160.554V57.048ZM176.546 52.862C176.733 52.9927 176.905 53.1093 177.064 53.212C177.232 53.3053 177.377 53.408 177.498 53.52C177.741 53.744 177.862 54.0193 177.862 54.346V56.726C177.862 57.146 177.713 57.468 177.414 57.692C177.162 57.8973 176.831 58 176.42 58H171.954V55.41H172.962V57.048H176.742V54.318L173.074 52.064C172.747 51.8773 172.477 51.686 172.262 51.49C172.057 51.2847 171.954 51.0093 171.954 50.664V48.9C171.954 48.3493 172.085 47.9713 172.346 47.766C172.57 47.5887 172.957 47.5 173.508 47.5H177.736V50.09H176.728V48.452H173.074V50.692L176.546 52.862Z" fill="white"/>
</svg>
