<svg width="125" height="67" viewBox="0 0 125 67" fill="none" xmlns="http://www.w3.org/2000/svg">
<path d="M20.7251 10.458C21.0718 10.7007 21.3925 10.9173 21.6871 11.108C21.9991 11.2813 22.2678 11.472 22.4931 11.68C22.9438 12.096 23.1691 12.6073 23.1691 13.214V17.634C23.1691 18.414 22.8918 19.012 22.3371 19.428C21.8691 19.8093 21.2538 20 20.4911 20H12.1971V15.19H14.0691V18.232H21.0891V13.162L14.2771 8.976C13.6705 8.62933 13.1678 8.274 12.7691 7.91C12.3878 7.52867 12.1971 7.01733 12.1971 6.376V3.1C12.1971 2.07733 12.4398 1.37533 12.9251 0.994C13.3411 0.664666 14.0605 0.499998 15.0831 0.499998H22.9351V5.31H21.0631V2.268H14.2771V6.428L20.7251 10.458ZM33.0489 18.232H34.7389V20H29.2789V18.232H30.9169V2.268H29.2789V0.499998H34.7389V2.268H33.0489V18.232ZM40.982 2.268V0.499998H44.986L50.498 11.862L55.958 0.499998H59.962V2.268H58.324V18.232H59.962V20H54.502V18.232H56.192V4.842L51.278 14.956H49.64L44.752 4.764V18.232H46.442V20H40.982V18.232H42.62V2.268H40.982ZM75.1031 0.499998C76.2471 0.499998 77.0185 0.716665 77.4171 1.15C77.8158 1.58333 78.0151 2.44133 78.0151 3.724V5.622C78.0151 6.61 77.8071 7.32933 77.3911 7.78C77.1831 8.00533 76.9058 8.222 76.5591 8.43C76.2298 8.638 75.8225 8.88933 75.3371 9.184L69.5911 12.772V18.232H71.2811V20H65.8211V18.232H67.4591V2.294H65.8211V0.499998H75.1031ZM76.1171 2.294H69.5911V10.692L76.1171 6.662V2.294ZM83.7286 18.232H85.3666V2.268H83.7286V0.499998H89.1886V2.268H87.4986V18.232H92.9586V15.19H94.7266V20H83.7286V18.232ZM109.139 7.182V12.642H107.371V10.796H103.705V18.232H110.361V15.19H112.129V20H99.935V18.232H101.573V2.268H99.935V0.499998H112.129V5.31H110.361V2.268H103.705V9.028H107.371V7.182H109.139Z" fill="white"/>
<path d="M17.9961 32.41H18.9481V35H14.6501C13.8661 35 13.3901 34.692 13.2221 34.076C13.1661 33.8987 13.1381 33.7073 13.1381 33.502V26.012C13.1381 25.3307 13.3761 24.8733 13.8521 24.64C14.0294 24.5467 14.2488 24.5 14.5101 24.5H18.9481V27.09H17.9961V25.452H14.2861V34.048H17.9961V32.41ZM29.4566 24.5C30.026 24.5 30.4366 24.6587 30.6886 24.976C30.95 25.284 31.0806 25.746 31.0806 26.362V33.096C31.0806 33.768 30.9686 34.2533 30.7446 34.552C30.5206 34.8507 30.1146 35 29.5266 35H26.8386C25.9426 35 25.4153 34.664 25.2566 33.992C25.2006 33.7867 25.1726 33.558 25.1726 33.306V26.362C25.1726 25.7367 25.2753 25.284 25.4806 25.004C25.714 24.668 26.1293 24.5 26.7266 24.5H29.4566ZM26.2926 34.048H29.9606V25.452H26.2926V34.048ZM46.4665 25.452H45.5845V35H44.2125L40.2505 26.824V34.048H41.1605V35H38.2205V34.048H39.1025V25.452H38.2205V24.5H40.3765L44.4365 32.844V25.452H43.5265V24.5H46.4665V25.452ZM55.003 34.048H55.885V25.452H54.121V27.104H53.113V24.5H59.819V27.104H58.797V25.452H57.033V34.048H57.943V35H55.003V34.048ZM69.9356 30.38L68.6896 25.452L67.4436 30.38H69.9356ZM72.8336 34.048V35H70.1036V34.048H70.8596L70.1596 31.262H67.2196L66.5196 34.048H67.2896V35H64.5596V34.048H65.4416L67.8776 24.5H69.5296L71.9236 34.048H72.8336ZM84.2664 32.41H85.2184V35H80.9204C80.1364 35 79.6604 34.692 79.4924 34.076C79.4364 33.8987 79.4084 33.7073 79.4084 33.502V26.012C79.4084 25.3307 79.6464 24.8733 80.1224 24.64C80.2997 24.5467 80.5191 24.5 80.7804 24.5H85.2184V27.09H84.2664V25.452H80.5564V34.048H84.2664V32.41ZM93.5539 34.048H94.4359V25.452H92.6719V27.104H91.6639V24.5H98.3699V27.104H97.3479V25.452H95.5839V34.048H96.4939V35H93.5539V34.048ZM109.546 29.862C109.733 29.9927 109.905 30.1093 110.064 30.212C110.232 30.3053 110.377 30.408 110.498 30.52C110.741 30.744 110.862 31.0193 110.862 31.346V33.726C110.862 34.146 110.713 34.468 110.414 34.692C110.162 34.8973 109.831 35 109.42 35H104.954V32.41H105.962V34.048H109.742V31.318L106.074 29.064C105.747 28.8773 105.477 28.686 105.262 28.49C105.057 28.2847 104.954 28.0093 104.954 27.664V25.9C104.954 25.3493 105.085 24.9713 105.346 24.766C105.57 24.5887 105.957 24.5 106.508 24.5H110.736V27.09H109.728V25.452H106.074V27.692L109.546 29.862Z" fill="white"/>
</svg>
